<svg class="icon icon-search" xmlns="http://www.w3.org/2000/svg" width="24" height="24" viewBox="0 0 24 24">
    <g>
        <path fill="currentColor" d="M9.33171324,0 C14.4750914,0 18.6634265,4.18833513 18.6634265,9.33171324 C18.6634265,11.5662209 17.8797082,13.614824 16.563791,15.2223572 L24,22.6585662 L22.6585662,24 L15.2223572,16.563791 C13.614824,17.8797082 11.5662209,18.6634265 9.33171324,18.6634265 C4.18833513,18.6634265 0,14.4750914 0,9.33171324 C0,4.18833513 4.18833513,0 9.33171324,0 Z M9.33171324,1.86634265 C5.19805543,1.86634265 1.86634265,5.19805636 1.86634265,9.33171324 C1.86634265,13.4653711 5.19805543,16.7970838 9.33171324,16.7970838 C13.4653701,16.7970838 16.7970838,13.4653711 16.7970838,9.33171324 C16.7970838,5.19805636 13.4653701,1.86634265 9.33171324,1.86634265 Z" fill-rule="nonzero"></path>
    </g>
</svg>