<svg class="icon icon-linkedin" viewBox="0 0 24 24" xmlns="http://www.w3.org/2000/svg" width="24px" height="24px">
    <title>LinkedIn</title>
    <g stroke="none" stroke-width="1" fill="none" fill-rule="evenodd">
        <path d="M21.240429,1 L2.87981566,1 C1.87655981,1 1,1.721875 1,2.71334821 L1,21.1147768 C1,22.1116518 1.87655981,23 2.87981566,23 L21.2350272,23 C22.2436848,23 22.9999664,22.1057589 22.9999664,21.1147768 L22.9999664,2.71334821 C23.0058253,1.721875 22.2436848,1 21.240429,1 Z M7.81948801,19.3380804 L4.66780125,19.3380804 L4.66780125,9.53875 L7.81948801,9.53875 L7.81948801,19.3380804 Z M6.35266215,8.04883929 L6.33007293,8.04883929 C5.32141531,8.04883929 4.66829232,7.29799107 4.66829232,6.35808036 C4.66829232,5.40098214 5.33860276,4.6678125 6.3698496,4.6678125 C7.40109643,4.6678125 8.03212128,5.39558036 8.0547105,6.35808036 C8.05421943,7.29799107 7.40109643,8.04883929 6.35266215,8.04883929 Z M19.3380241,19.3380804 L16.1863373,19.3380804 L16.1863373,13.98 C16.1863373,12.6963393 15.727678,11.8192857 14.5874137,11.8192857 C13.7162556,11.8192857 13.2006322,12.4085714 12.9713026,12.9826339 C12.8853653,13.1888839 12.862285,13.4697768 12.862285,13.7565625 L12.862285,19.3380804 L9.71059828,19.3380804 L9.71059828,9.53875 L12.862285,9.53875 L12.862285,10.9024554 C13.3209443,10.2493304 14.0374154,9.30941964 15.7045977,9.30941964 C17.7734753,9.30941964 19.3385152,10.673125 19.3385152,13.6131696 L19.3380241,19.3380804 Z" id="Shape" fill="#000000" fill-rule="nonzero"></path>
    </g>
</svg>