<svg class="icon icon-twitter" viewBox="0 0 24 24" xmlns="http://www.w3.org/2000/svg" width="24px" height="24px">
    <title>Twitter</title>
    <g stroke="none" stroke-width="1" fill="none" fill-rule="evenodd">
        <path d="M24,4.36979308 C23.0997281,4.77726705 22.1471933,5.0457193 21.1725,5.16666558 C22.1968342,4.54186501 22.9671594,3.54925743 23.339,2.37500766 C22.3705478,2.96489728 21.3127784,3.37879163 20.211,3.59896216 C19.2733996,2.57539218 17.9736791,1.99739403 16.6155,2 C13.8945,2 11.6925,4.26041842 11.6925,7.04686803 C11.6905708,7.43445268 11.7332077,7.82088338 11.8195,8.19790609 C7.87420312,8.00524611 4.18944063,6.08988655 1.6695,2.92188095 C1.23228742,3.68964947 1.00106606,4.56564872 1,5.45833134 C1,7.20832586 1.8765,8.75519601 3.2,9.66144317 C2.41586391,9.64205822 1.64779539,9.42587167 0.961,9.03123681 L0.961,9.09373662 C0.961,11.5416456 2.661,13.5780976 4.911,14.0416378 C4.48789169,14.1591281 4.05188407,14.2186574 3.614,14.2187206 C3.30328938,14.2192849 2.99328478,14.1878826 2.6885,14.1249709 C3.314,16.1301729 5.1345,17.5885017 7.291,17.6301682 C5.53868927,19.0368953 3.38730924,19.7972131 1.175,19.7916198 C0.782308994,19.7910114 0.389982789,19.766665 0,19.7187033 C2.25058982,21.2156867 4.8667224,22.0075181 7.537,22 C16.605,22 21.559,14.307262 21.559,7.63540785 C21.559,7.41665854 21.5535,7.19790922 21.5435,6.98436822 C22.5050447,6.27190126 23.3369017,5.38651447 24,4.36979308 Z" id="Path" fill="#000000" fill-rule="nonzero"></path>
    </g>
</svg>