<svg class="icon icon-facebook" viewBox="0 0 24 24" xmlns="http://www.w3.org/2000/svg" width="24px" height="24px">
    <title>Facebook</title>
    <g stroke="none" stroke-width="1" fill="none" fill-rule="evenodd">
        <path d="M23,12.0664481 C23,5.95519975 18.0745536,1 12,1 C5.92544643,1 1,5.95519975 1,12.0664481 C1,17.5897914 5.021875,22.1680402 10.28125,22.9990119 L10.28125,15.2663313 L7.48754464,15.2663313 L7.48754464,12.0664481 L10.28125,12.0664481 L10.28125,9.62837125 C10.28125,6.85533673 11.9238839,5.32233725 14.4362054,5.32233725 C15.6398214,5.32233725 16.8989286,5.53872583 16.8989286,5.53872583 L16.8989286,8.26235656 L15.5111607,8.26235656 C14.1454911,8.26235656 13.7182589,9.11506591 13.7182589,9.99148908 L13.7182589,12.0664481 L16.7687946,12.0664481 L16.2816518,15.2663313 L13.71875,15.2663313 L13.71875,23 C18.978125,22.1695224 23,17.5912735 23,12.0664481 Z" id="Path" fill="#000000" fill-rule="nonzero"></path>
    </g>
</svg>