<svg class="icon icon-instagram" viewBox="0 0 24 24" xmlns="http://www.w3.org/2000/svg" width="24px" height="24px">
    <title>Instagram</title>
    <g stroke="none" stroke-width="1" fill="none" fill-rule="evenodd">
        <path d="M16.5831696,1 C20.1125,1 23,3.8875 23,7.41683036 L23,7.41683036 L23,16.5831696 C23,20.1125 20.1125,23 16.5831696,23 L16.5831696,23 L7.41683036,23 C3.8875,23 1,20.1125 1,16.5831696 L1,16.5831696 L1,7.41683036 C1,3.8875 3.8875,1 7.41683036,1 L7.41683036,1 Z M12,6.5 C8.96243388,6.5 6.5,8.96243388 6.5,12 C6.5,15.0375661 8.96243388,17.5 12,17.5 C15.0375661,17.5 17.5,15.0375661 17.5,12 C17.5,10.5413093 16.9205374,9.14236278 15.8890873,8.1109127 C14.8576372,7.07946262 13.4586907,6.5 12,6.5 Z M12,8.33316964 C13.4830944,8.33316964 14.8201538,9.22656418 15.3877095,10.5967648 C15.9552652,11.9669654 15.6415467,13.5441345 14.5928406,14.5928406 C13.5441345,15.6415467 11.9669654,15.9552652 10.5967648,15.3877095 C9.22656418,14.8201538 8.33316964,13.4830944 8.33316964,12 C8.33533489,9.97576307 9.97576307,8.33533489 12,8.33316964 Z M17.9581696,4.66683036 C17.1987781,4.66683036 16.5831696,5.28243883 16.5831696,6.04183036 C16.5831696,6.80122189 17.1987781,7.41683353 17.9581696,7.41683353 C18.3230822,7.41761484 18.6732749,7.27300111 18.9313076,7.01496834 C19.1893404,6.75693557 19.3339541,6.40674296 19.3331728,6.04183036 C19.3331728,5.28243883 18.7175612,4.66683036 17.9581696,4.66683036 Z" id="Shape" fill="#000000" fill-rule="nonzero"></path>
    </g>
</svg>