<svg class="icon icon-whatsapp" viewBox="0 0 24 24" xmlns="http://www.w3.org/2000/svg" width="24px" height="24px">
    <title>Whatsapp</title>
    <g stroke="none" stroke-width="1" fill="none" fill-rule="evenodd">
        <path d="M12.0461255,1.00004995 C14.9516655,0.991263994 17.7406738,2.14193379 19.7947169,4.19696087 C21.8526888,6.23442407 23.007317,9.01228548 22.9999651,11.9082203 C22.9969835,17.9193982 18.0828473,22.8099562 12.0461255,22.8099562 L12.0461255,22.8099562 C10.2136123,22.8105904 8.41427953,22.3548501 6.80690113,21.4840694 L6.80690113,21.4840694 L1,23 L2.55423612,17.3527044 C1.59375026,15.6968601 1.08915934,13.8160839 1.09183006,11.9018364 C1.09428541,5.89016742 6.00891261,1.00004995 12.0461255,1.00004995 Z M8.16765572,6.86641296 C7.88762917,6.87370197 7.62325969,6.99716911 7.43792591,7.20721498 C7.18698921,7.48024945 6.4798486,8.14024643 6.4798486,9.47988317 C6.4798486,10.8195199 7.46198833,12.1159426 7.59752361,12.2976382 C7.7330589,12.4793338 9.52742818,15.2307944 12.2729998,16.4108337 C12.7828248,16.6291666 13.3037465,16.8206189 13.8336198,16.9844025 C14.4891981,17.1916337 15.085848,17.1626606 15.557275,17.0924377 C16.0832109,17.0143577 17.1778056,16.4334228 17.4051709,15.7969972 C17.6325363,15.1605715 17.6330273,14.6154847 17.5647686,14.5020477 C17.4965099,14.3886108 17.3138319,14.3198611 17.0398149,14.1838349 C16.766289,14.0473177 15.4192844,13.3883028 15.1698209,13.297455 C14.9203574,13.2066072 14.7362062,13.1609378 14.5540193,13.4339723 C14.3718324,13.7070067 13.8468787,14.3178968 13.687281,14.5020477 C13.5276833,14.6861987 13.3680856,14.7063325 13.0945597,14.5698153 C12.8210337,14.4332981 11.9385812,14.1460226 10.8930935,13.2179018 C10.0793907,12.495539 9.5303746,11.6037574 9.37077689,11.331214 C9.21117918,11.0586706 9.35358944,10.9108588 9.49059794,10.7753237 C9.61385647,10.6530475 9.76412385,10.4571109 9.90113234,10.2980044 C10.0381408,10.138898 10.0838103,10.02497 10.1746583,9.84327437 C10.2655062,9.66157877 10.2203278,9.50247235 10.152069,9.36644619 C10.0838103,9.23042002 9.53626743,7.88931008 9.30841102,7.34373221 C9.08595637,6.81239535 8.8605553,6.88458252 8.69260941,6.87623435 C8.5330117,6.86837724 8.3488605,6.86641296 8.16765572,6.86641296 Z" id="Shape" fill="#000000" fill-rule="nonzero"></path>
    </g>
</svg>