<svg class="icon icon-youtube" viewBox="0 0 24 24" xmlns="http://www.w3.org/2000/svg" width="24px" height="24px">
    <title>YouTube</title>
    <g stroke="none" stroke-width="1" fill="none" fill-rule="evenodd">
        <path d="M23.8457927,6.97442304 C23.8457927,4.86510547 22.2940345,3.16827667 20.3766052,3.16827667 C17.7794026,3.04687372 15.130631,3 12.4237271,3 L11.5798706,3 C8.87953003,3 6.22607035,3.04687372 3.62886776,3.16874541 C1.71612651,3.16874541 0.164368283,4.87494895 0.164368283,6.98426653 C0.0471659997,8.65250236 -0.00252776815,10.3212069 0.000285086634,11.9899115 C-0.00440300468,13.6586161 0.0487286969,15.3288831 0.159680191,17.0007126 C0.159680191,19.1100301 1.71143842,20.8209211 3.62417967,20.8209211 C6.35264881,20.9474801 9.15143933,21.0037286 11.9971108,20.9990412 C14.8474703,21.008416 17.6384473,20.9490426 20.3700418,20.8209211 C22.2874712,20.8209211 23.8392294,19.1100301 23.8392294,17.0007126 C23.9517436,15.3273206 24.0033126,13.6586161 23.9986245,11.9852241 C24.0092508,10.3165196 23.9583069,8.64625253 23.8457927,6.97442304 Z M9.7046341,16.5882238 L9.7046341,7.37753707 L16.5023665,11.9805368 L9.7046341,16.5882238 Z" id="Shape" fill="#000000" fill-rule="nonzero"></path>
    </g>
</svg>