<svg class="icon icon-cart" xmlns="http://www.w3.org/2000/svg" width="24" height="24" viewBox="0 0 24 24">
    <g>
        <path  fill="currentColor" fill-rule="nonzero" d="M1.01052632,1 C0.453947621,1 0,1.449219 0,2 C0,2.550781 0.453947621,3 1.01052632,3 L3.25263158,3 L5.90526316,15.5 C6.13026291,16.390625 6.93552606,17 7.86315789,17 L19.4526316,17 C20.3644739,17 21.1381581,16.402344 21.3789474,15.53125 L24,4 L7.07368421,4 L7.57894737,6 L21.3789474,6 L19.4526316,15 L7.86315789,15 L5.21052632,2.5 C4.98552657,1.609375 4.18026341,1 3.25263158,1 L1.01052632,1 Z M18.1894737,17 C16.5276318,17 15.1578947,18.355469 15.1578947,20 C15.1578947,21.644531 16.5276318,23 18.1894737,23 C19.8513155,23 21.2210526,21.644531 21.2210526,20 C21.2210526,18.355469 19.8513155,17 18.1894737,17 Z M9.09473684,17 C7.43289499,17 6.06315789,18.355469 6.06315789,20 C6.06315789,21.644531 7.43289499,23 9.09473684,23 C10.7565787,23 12.1263158,21.644531 12.1263158,20 C12.1263158,18.355469 10.7565787,17 9.09473684,17 Z M9.09473684,19 C9.66315789,19 10.1052632,19.4375 10.1052632,20 C10.1052632,20.5625 9.66315789,21 9.09473684,21 C8.52631579,21 8.08421053,20.5625 8.08421053,20 C8.08421053,19.4375 8.52631579,19 9.09473684,19 Z M18.1894737,19 C18.7578947,19 19.2,19.4375 19.2,20 C19.2,20.5625 18.7578947,21 18.1894737,21 C17.6210526,21 17.1789474,20.5625 17.1789474,20 C17.1789474,19.4375 17.6210526,19 18.1894737,19 Z"></path>
    </g>
</svg>